<svg width="67" height="67" viewBox="0 0 67 67" fill="none" xmlns="http://www.w3.org/2000/svg">
<circle cx="33.5" cy="33.5" r="33.5" fill="#DCD5FD"/>
<path d="M31.9998 42.2633C28.9119 41.5185 26.4813 39.0879 25.7366 35.9999M42.2636 36C41.5188 39.0879 39.0883 41.5185 36.0004 42.2633M36.0002 25.7366C39.0882 26.4813 41.5188 28.9119 42.2636 31.9999M25.7368 32C26.4815 28.912 28.9122 26.4813 32.0002 25.7366M25.6 36H26.4C26.9601 36 27.2401 36 27.454 35.891C27.6422 35.7951 27.7951 35.6422 27.891 35.454C28 35.2401 28 34.9601 28 34.4V33.6C28 33.0399 28 32.7599 27.891 32.546C27.7951 32.3578 27.6422 32.2049 27.454 32.109C27.2401 32 26.9601 32 26.4 32H25.6C25.0399 32 24.7599 32 24.546 32.109C24.3578 32.2049 24.2049 32.3578 24.109 32.546C24 32.7599 24 33.0399 24 33.6V34.4C24 34.9601 24 35.2401 24.109 35.454C24.2049 35.6422 24.3578 35.7951 24.546 35.891C24.7599 36 25.0399 36 25.6 36ZM41.6 36H42.4C42.9601 36 43.2401 36 43.454 35.891C43.6422 35.7951 43.7951 35.6422 43.891 35.454C44 35.2401 44 34.9601 44 34.4V33.6C44 33.0399 44 32.7599 43.891 32.546C43.7951 32.3578 43.6422 32.2049 43.454 32.109C43.2401 32 42.9601 32 42.4 32H41.6C41.0399 32 40.7599 32 40.546 32.109C40.3578 32.2049 40.2049 32.3578 40.109 32.546C40 32.7599 40 33.0399 40 33.6V34.4C40 34.9601 40 35.2401 40.109 35.454C40.2049 35.6422 40.3578 35.7951 40.546 35.891C40.7599 36 41.0399 36 41.6 36ZM33.6 28H34.4C34.9601 28 35.2401 28 35.454 27.891C35.6422 27.7951 35.7951 27.6422 35.891 27.454C36 27.2401 36 26.9601 36 26.4V25.6C36 25.0399 36 24.7599 35.891 24.546C35.7951 24.3578 35.6422 24.2049 35.454 24.109C35.2401 24 34.9601 24 34.4 24H33.6C33.0399 24 32.7599 24 32.546 24.109C32.3578 24.2049 32.2049 24.3578 32.109 24.546C32 24.7599 32 25.0399 32 25.6V26.4C32 26.9601 32 27.2401 32.109 27.454C32.2049 27.6422 32.3578 27.7951 32.546 27.891C32.7599 28 33.0399 28 33.6 28ZM33.6 44H34.4C34.9601 44 35.2401 44 35.454 43.891C35.6422 43.7951 35.7951 43.6422 35.891 43.454C36 43.2401 36 42.9601 36 42.4V41.6C36 41.0399 36 40.7599 35.891 40.546C35.7951 40.3578 35.6422 40.2049 35.454 40.109C35.2401 40 34.9601 40 34.4 40H33.6C33.0399 40 32.7599 40 32.546 40.109C32.3578 40.2049 32.2049 40.3578 32.109 40.546C32 40.7599 32 41.0399 32 41.6V42.4C32 42.9601 32 43.2401 32.109 43.454C32.2049 43.6422 32.3578 43.7951 32.546 43.891C32.7599 44 33.0399 44 33.6 44Z" stroke="#7C3AEC" stroke-width="2" stroke-linecap="round" stroke-linejoin="round"/>
</svg>
