<svg xmlns="http://www.w3.org/2000/svg" width="775.055" height="240" viewBox="0 0 775.055 240"><path d="M169.606 36.514c.968-1.373 1.453-2.94 1.453-4.703 0-3.02-.976-5.27-2.93-6.753-1.954-1.481-4.965-2.223-9.036-2.223h-8.73v29.96h6.352V41.298h3.381l7.153 11.497h7.049l-8.812-13.054c1.775-.778 3.15-1.854 4.12-3.227zm-6.395-1.383c-.956.67-2.439 1.004-4.446 1.004h-2.05V28.04h1.926c2.05 0 3.563.3 4.54.902.977.6 1.465 1.612 1.465 3.032 0 1.434-.478 2.487-1.435 3.156zm29.33-4.242c-1.68-.956-3.62-1.435-5.819-1.435-3.539 0-6.284 1.039-8.238 3.115-1.954 2.077-2.93 4.987-2.93 8.73 0 2.405.45 4.508 1.352 6.311.902 1.804 2.192 3.188 3.873 4.15 1.68.963 3.62 1.445 5.82 1.445 3.511 0 6.25-1.052 8.217-3.156 1.968-2.103 2.952-5.02 2.952-8.75 0-2.405-.452-4.5-1.353-6.291-.902-1.79-2.194-3.163-3.873-4.119zm-2.264 15.564c-.73 1.155-1.93 1.731-3.596 1.731-1.68 0-2.893-.58-3.637-1.742-.746-1.16-1.117-2.875-1.117-5.144 0-2.28.369-3.985 1.106-5.112.738-1.127 1.94-1.69 3.607-1.69 1.68 0 2.89.567 3.627 1.7.737 1.135 1.106 2.836 1.106 5.102 0 2.282-.365 4-1.096 5.155zm24.772-17c-2.87 0-5.035 1.136-6.497 3.404h-.245c.163-2.078.245-3.586.245-4.53V20.91h-6.25v31.886h4.775l1.045-2.52h.43c1.53 1.953 3.641 2.93 6.332 2.93 2.719 0 4.867-1.038 6.446-3.114 1.577-2.078 2.366-5.008 2.366-8.793 0-3.674-.765-6.567-2.295-8.677-1.53-2.111-3.648-3.167-6.352-3.167zm1.137 16.918c-.758 1.182-1.78 1.772-3.064 1.772-1.585 0-2.743-.533-3.474-1.597-.73-1.067-1.096-2.828-1.096-5.287v-.678c.028-2.185.397-3.753 1.106-4.702.711-.95 1.838-1.425 3.382-1.425 1.326 0 2.37.564 3.135 1.69.765 1.128 1.148 2.819 1.148 5.073 0 2.254-.379 3.972-1.137 5.154zm21.492-16.917c-3.389 0-6.042 1.049-7.961 3.146-1.92 2.097-2.88 5.065-2.88 8.904 0 3.73 1.038 6.613 3.115 8.648 2.076 2.036 4.96 3.053 8.648 3.053 1.789 0 3.305-.133 4.55-.4a14.627 14.627 0 0 0 3.504-1.22V46.75c-1.34.629-2.624 1.086-3.853 1.373s-2.534.43-3.915.43c-1.775 0-3.156-.499-4.138-1.496-.984-.996-1.51-2.383-1.579-4.16h14.775v-3.033c0-3.25-.901-5.799-2.704-7.643-1.803-1.844-4.325-2.767-7.562-2.767zm-4.365 9.283c.11-1.543.54-2.736 1.292-3.576.75-.84 1.789-1.26 3.113-1.26 1.326 0 2.378.42 3.156 1.26.78.84 1.182 2.033 1.21 3.576h-8.771zm27.926-8.105a8.62 8.62 0 0 0-2.88 3.105h-.307l-.922-3.852h-4.734v22.91h6.25v-11.66c0-1.844.557-3.28 1.67-4.303 1.114-1.025 2.667-1.538 4.663-1.538.724 0 1.339.07 1.844.206l.471-5.862c-.56-.122-1.263-.184-2.11-.184-1.421 0-2.737.394-3.945 1.178zm17.26 16.959c-.499-.424-.748-1.08-.748-1.968V34.577h6.414v-4.692h-6.414v-4.878h-3.995l-1.805 4.837-3.442 2.09v2.643h2.992v11.046c0 2.527.57 4.423 1.711 5.687 1.141 1.263 2.962 1.895 5.462 1.895 2.267 0 4.18-.349 5.737-1.044v-4.653c-1.53.479-2.842.717-3.934.717-.82 0-1.48-.212-1.978-.634zm31.048-12.09c-2.119-1.012-3.46-1.713-4.028-2.102-.566-.389-.98-.792-1.24-1.21-.259-.416-.389-.903-.389-1.465 0-.901.32-1.632.963-2.192.642-.56 1.565-.84 2.767-.84 1.01 0 2.039.13 3.084.389 1.045.26 2.366.718 3.965 1.373l2.05-4.938a30.69 30.69 0 0 0-4.437-1.557c-1.414-.37-2.9-.554-4.457-.554-3.17 0-5.653.758-7.45 2.274-1.797 1.517-2.694 3.6-2.694 6.251 0 1.407.273 2.636.82 3.689a9.286 9.286 0 0 0 2.192 2.765c.916.793 2.288 1.62 4.119 2.48 1.954.93 3.248 1.607 3.884 2.03.635.423 1.116.863 1.444 1.321.328.458.493.98.493 1.567 0 1.053-.373 1.845-1.118 2.378-.744.533-1.813.8-3.207.8-1.16 0-2.442-.185-3.842-.554-1.401-.37-3.112-1.004-5.133-1.907v5.902c2.459 1.203 5.287 1.804 8.484 1.804 3.469 0 6.177-.779 8.125-2.336 1.946-1.558 2.92-3.689 2.92-6.393 0-1.954-.52-3.604-1.557-4.95-1.039-1.345-2.96-2.688-5.758-4.026zm21.48-1.006c.848 0 1.695.127 2.542.38.846.252 1.762.577 2.745.973l1.845-4.837c-2.104-1.037-4.48-1.557-7.132-1.557-3.62 0-6.4 1.029-8.339 3.085-1.94 2.056-2.91 5.03-2.91 8.924 0 7.828 3.565 11.742 10.697 11.742 1.57 0 2.872-.123 3.903-.369s2.052-.69 3.064-1.331v-5.35c-1.024.684-2.049 1.186-3.074 1.507-1.025.321-2.138.48-3.34.48-3.251 0-4.877-2.239-4.877-6.72 0-4.617 1.626-6.927 4.876-6.927zm24.024-5.041c-3.033 0-5.246 1.12-6.639 3.362h-.328l.144-1.845c.094-1.871.143-3.06.143-3.566V20.91h-6.25v31.886h6.25V42.017c0-2.665.39-4.592 1.168-5.78.779-1.188 2.042-1.783 3.791-1.783 2.46 0 3.689 1.653 3.689 4.96v13.381h6.25v-14.94c0-2.704-.697-4.78-2.09-6.229-1.393-1.448-3.436-2.172-6.128-2.172zm28.798 11.21c0 2.704-.39 4.64-1.169 5.81-.779 1.168-2.042 1.751-3.791 1.751-1.285 0-2.22-.413-2.807-1.24s-.882-2.065-.882-3.719v-13.38h-6.25v14.938c0 2.704.684 4.778 2.05 6.22 1.366 1.44 3.395 2.161 6.086 2.161 1.57 0 2.97-.29 4.2-.871 1.23-.58 2.18-1.404 2.85-2.47h.328l.839 2.931h4.796v-22.91h-6.25v10.779zm39.084-11.21c-1.504 0-2.853.294-4.048.881-1.197.588-2.1 1.414-2.716 2.48h-.553c-1.215-2.24-3.539-3.361-6.968-3.361-1.501 0-2.833.298-3.995.891-1.162.595-2.05 1.418-2.664 2.47h-.349l-.84-2.93h-4.774v22.91h6.25V42.017c0-2.692.362-4.625 1.085-5.8.726-1.174 1.885-1.763 3.484-1.763 1.19 0 2.06.414 2.613 1.24.554.827.83 2.067.83 3.72v13.381h6.25V41.298c0-2.376.38-4.11 1.138-5.204.758-1.093 1.903-1.64 3.431-1.64 1.19 0 2.06.414 2.614 1.24s.83 2.067.83 3.72v13.381h6.27v-14.94c0-2.936-.666-5.07-1.998-6.402s-3.294-2-5.89-2zm23.058-.04c-3.21 0-6.135.69-8.77 2.069l2.07 4.222c2.473-1.108 4.623-1.66 6.456-1.66 2.376 0 3.563 1.161 3.563 3.484v1.004l-3.975.122c-3.429.123-5.993.762-7.693 1.917-1.701 1.154-2.552 2.947-2.552 5.379 0 2.323.631 4.112 1.896 5.37 1.262 1.256 2.995 1.884 5.194 1.884 1.789 0 3.24-.256 4.355-.769 1.112-.511 2.194-1.43 3.247-2.756h.164l1.21 3.115h4.364V37.53c0-2.733-.82-4.768-2.459-6.107-1.638-1.338-3.995-2.008-7.07-2.008zm3.32 14.651c0 1.38-.434 2.487-1.3 3.32-.868.834-2.027 1.25-3.474 1.25-2.022 0-3.032-.881-3.032-2.643 0-1.23.444-2.145 1.331-2.746.888-.6 2.24-.929 4.058-.984l2.416-.082v1.885zm25.03-14.611c-1.558 0-2.947.284-4.172.85-1.222.568-2.182 1.404-2.878 2.512h-.349l-.84-2.93h-4.774v22.91h6.25v-10.78c0-2.705.39-4.642 1.167-5.809.78-1.168 2.043-1.753 3.79-1.753 1.285 0 2.223.414 2.809 1.24.588.827.883 2.067.883 3.72v13.381h6.25v-14.94c0-2.718-.691-4.798-2.07-6.239-1.382-1.441-3.402-2.162-6.066-2.162zM28.827 26.936l3.647 1.68v19.386l-3.647 1.68v3.607h13.626v-3.606l-3.647-1.681V28.616l3.647-1.68V23.33H28.827v3.607zM62.609 41.63c0 2.323-.468 4.026-1.403 5.112-.937 1.086-2.443 1.63-4.52 1.63-2.144 0-3.681-.54-4.61-1.62-.93-1.078-1.393-2.773-1.393-5.08V23.328H44.35v19.304c0 3.429 1.065 6.13 3.196 8.105s5.124 2.961 8.975 2.961c2.555 0 4.769-.444 6.64-1.333 1.872-.888 3.303-2.164 4.293-3.832.99-1.665 1.487-3.606 1.487-5.819V23.329h-6.333v18.3zm7.717-13.013h8.135v24.673h6.353V28.616h8.135v-5.287H70.326v5.287zM39.48 130.529l-3.525-.798v-23.977l3.525-.84v-2.173H28.66v2.172l3.525.84v23.978l-3.524.798v2.172h10.82v-2.172zm9.396-9.488c0-2.883.523-4.963 1.567-6.24 1.045-1.278 2.723-1.916 5.032-1.916 1.734 0 3.009.448 3.82 1.343.813.894 1.22 2.257 1.22 4.087v14.386h3.649V118.05c0-2.828-.67-4.912-2.01-6.251-1.339-1.338-3.387-2.008-6.147-2.008-1.516 0-2.903.305-4.16.912-1.256.608-2.234 1.465-2.93 2.571h-.205l-.553-3.074h-2.971v22.501h3.688v-11.66zm23.74-.687c.86.581 2.348 1.282 4.467 2.102 2.076.791 3.521 1.497 4.334 2.11.812.616 1.219 1.367 1.219 2.255 0 1.01-.423 1.818-1.27 2.419-.848.6-2.2.9-4.057.9-2.296 0-4.68-.601-7.153-1.803v3.362c1.748.942 4.105 1.414 7.07 1.414 2.842 0 5.048-.579 6.62-1.733 1.57-1.155 2.356-2.784 2.356-4.888 0-1.05-.212-1.953-.635-2.704-.424-.75-1.083-1.429-1.977-2.03-.896-.6-2.279-1.25-4.15-1.946-2.5-.957-4.093-1.705-4.775-2.245-.683-.538-1.025-1.218-1.025-2.039 0-.846.395-1.512 1.189-1.997.791-.485 1.953-.728 3.483-.728 1.831 0 3.887.479 6.17 1.435l1.248-2.93c-2.227-1.012-4.617-1.517-7.172-1.517-2.623 0-4.686.533-6.188 1.598-1.503 1.066-2.255 2.521-2.255 4.365 0 1.039.202 1.92.605 2.644.403.724 1.035 1.376 1.895 1.956zm19.744 5.81c0 4.632 2.199 6.949 6.598 6.949.738 0 1.465-.073 2.183-.217.717-.142 1.246-.29 1.588-.44v-2.827c-.328.122-.813.232-1.455.327-.643.097-1.203.144-1.68.144-1.107 0-1.971-.349-2.592-1.045-.623-.698-.933-1.696-.933-2.992V113.07h6.496v-2.87H96.07v-5.163h-2.192L92.4 109.83l-3.217 1.477v1.762h3.177v13.095zm17.16-19.693c.576 0 1.077-.191 1.507-.574.431-.383.646-.976.646-1.783 0-.82-.215-1.414-.646-1.782a2.24 2.24 0 0 0-1.506-.553c-.615 0-1.13.184-1.546.553-.418.368-.626.963-.626 1.782 0 .807.208 1.4.626 1.783.416.383.931.574 1.546.574zm-1.883 26.23h3.688v-22.5h-3.688v22.5zm11.526-6.536c0 4.631 2.199 6.948 6.598 6.948.738 0 1.465-.073 2.183-.217.717-.142 1.246-.29 1.588-.44v-2.827c-.328.122-.813.232-1.456.327-.642.097-1.202.144-1.68.144-1.107 0-1.97-.349-2.592-1.045-.622-.698-.932-1.696-.932-2.992V113.07h6.496v-2.87h-6.496v-5.163h-2.192l-1.477 4.794-3.217 1.477v1.762h3.177v13.095zm23.207 6.948c1.625 0 3.053-.295 4.282-.883 1.23-.586 2.18-1.42 2.85-2.499h.184l.532 2.97h3.033v-22.5h-3.709v11.722c0 2.855-.526 4.925-1.578 6.21-1.053 1.284-2.732 1.925-5.042 1.925-1.707 0-2.967-.44-3.78-1.322-.813-.88-1.22-2.23-1.22-4.048V110.2h-3.73v14.735c0 2.856.688 4.933 2.06 6.23s3.412 1.948 6.118 1.948zm18.72-6.948c0 4.631 2.199 6.948 6.598 6.948.738 0 1.465-.073 2.183-.217.717-.142 1.246-.29 1.587-.44v-2.827c-.327.122-.813.232-1.455.327-.642.097-1.202.144-1.68.144-1.107 0-1.97-.349-2.592-1.045-.622-.698-.932-1.696-.932-2.992V113.07h6.496v-2.87H164.8v-5.163h-2.192l-1.477 4.794-3.217 1.477v1.762h3.177v13.095zm-76.665 86.772c3.661 0 6.523-.978 8.586-2.93 2.063-1.956 3.094-4.64 3.094-8.056v-19.385h-3.75v19.385c0 2.501-.665 4.414-1.998 5.738-1.332 1.325-3.235 1.988-5.706 1.988-2.624 0-4.588-.668-5.892-2.008-1.306-1.339-1.958-3.232-1.958-5.676v-19.427h-3.79v19.303c0 3.429.997 6.132 2.99 8.105 1.996 1.975 4.803 2.963 8.424 2.963zm22.83-12.07c0-2.884.523-4.964 1.567-6.24 1.045-1.28 2.723-1.918 5.032-1.918 1.734 0 3.009.449 3.82 1.344.813.893 1.22 2.257 1.22 4.087v14.385h3.649v-14.651c0-2.828-.67-4.91-2.01-6.25-1.339-1.34-3.387-2.008-6.147-2.008-1.516 0-2.903.305-4.16.91-1.256.61-2.234 1.467-2.93 2.572h-.206l-.552-3.073h-2.971v22.5h3.688v-11.659zm22.339 11.658h3.688v-22.5h-3.688v22.5zm1.884-26.23c.575 0 1.076-.19 1.506-.574.432-.382.646-.975.646-1.783 0-.818-.214-1.414-.646-1.78a2.24 2.24 0 0 0-1.506-.554c-.615 0-1.13.184-1.546.553-.418.367-.626.963-.626 1.78 0 .809.208 1.402.626 1.784.416.384.931.574 1.546.574zm18.22 26.23l8.547-22.5h-3.936l-4.794 13.258a629.062 629.062 0 0 0-1.518 4.62 26.84 26.84 0 0 0-.214.74c-.061.224-.112.426-.153.605h-.165c-.26-1.312-.86-3.3-1.803-5.965l-4.775-13.258h-3.955l8.525 22.5h4.241zm21.765.412c1.49 0 2.781-.11 3.873-.33 1.094-.217 2.262-.593 3.506-1.127v-3.237c-1.45.614-2.712 1.028-3.792 1.24-1.079.212-2.22.316-3.422.316-2.254 0-3.996-.66-5.226-1.987-1.23-1.325-1.878-3.265-1.946-5.819h15.41v-2.234c0-3.115-.84-5.584-2.52-7.407-1.682-1.825-3.935-2.736-6.763-2.736-3.047 0-5.465 1.068-7.255 3.207-1.789 2.138-2.684 5.01-2.684 8.617 0 3.578.96 6.39 2.879 8.432 1.919 2.042 4.566 3.065 7.94 3.065zm-5.102-18.61c1.025-1.132 2.418-1.7 4.181-1.7 1.72 0 3.052.548 3.995 1.64.943 1.093 1.428 2.691 1.455 4.796h-11.454c.19-2.022.798-3.601 1.823-4.736zm22.974 6.19c0-1.406.286-2.688.86-3.843.574-1.155 1.37-2.057 2.388-2.713a5.99 5.99 0 0 1 3.31-.985c.791 0 1.604.097 2.437.286l.451-3.401c-.765-.165-1.647-.245-2.643-.245-1.38 0-2.657.382-3.832 1.148-1.176.765-2.193 1.89-3.054 3.381h-.164l-.41-4.12h-3.032v22.5h3.689v-12.008zm14.797-.34c.86.582 2.35 1.283 4.468 2.103 2.076.79 3.521 1.497 4.334 2.11.812.616 1.218 1.367 1.218 2.255 0 1.01-.422 1.818-1.27 2.419-.847.6-2.2.9-4.057.9-2.295 0-4.68-.601-7.152-1.803v3.362c1.748.942 4.105 1.414 7.07 1.414 2.842 0 5.048-.579 6.619-1.734s2.357-2.783 2.357-4.888c0-1.05-.212-1.952-.635-2.703-.424-.75-1.084-1.429-1.978-2.03-.895-.601-2.278-1.25-4.15-1.945-2.5-.958-4.092-1.706-4.774-2.245-.683-.538-1.025-1.22-1.025-2.04 0-.845.395-1.511 1.188-1.997.792-.484 1.954-.729 3.484-.729 1.83 0 3.887.48 6.169 1.437l1.25-2.93c-2.228-1.013-4.618-1.517-7.173-1.517-2.624 0-4.686.532-6.189 1.596-1.502 1.068-2.254 2.522-2.254 4.367 0 1.038.202 1.918.605 2.644.402.723 1.035 1.376 1.895 1.955zm19.122 12.348h3.688v-22.5h-3.688v22.5zm1.884-26.23c.575 0 1.076-.19 1.506-.574.432-.382.646-.975.646-1.783 0-.818-.214-1.414-.646-1.78a2.24 2.24 0 0 0-1.506-.554c-.615 0-1.13.184-1.546.553-.418.367-.626.963-.626 1.78 0 .809.208 1.402.626 1.784.416.384.931.574 1.546.574zm9.307 19.694c0 4.63 2.198 6.948 6.597 6.948.739 0 1.466-.073 2.184-.217.717-.143 1.246-.29 1.587-.44v-2.827c-.328.122-.813.232-1.455.326-.642.098-1.202.145-1.68.145-1.107 0-1.971-.35-2.592-1.045-.622-.698-.933-1.696-.933-2.993v-12.993h6.497v-2.868h-6.497v-5.164h-2.192l-1.476 4.795-3.217 1.477v1.76h3.177v13.096zm26.58-21.887c1.27-1.324 2.205-2.424 2.808-3.299v-.429h-4.448a36.247 36.247 0 0 1-2.018 3.412c-.799 1.21-1.459 2.14-1.977 2.795v.514h2.437c.862-.67 1.927-1.666 3.198-2.993zm-2.07 28.835c1.488 0 2.78-.11 3.873-.33 1.093-.217 2.262-.593 3.505-1.127v-3.237c-1.45.614-2.712 1.028-3.792 1.24-1.079.212-2.22.316-3.422.316-2.254 0-3.996-.66-5.226-1.987-1.23-1.325-1.878-3.265-1.946-5.819h15.41v-2.234c0-3.115-.84-5.584-2.52-7.407-1.681-1.825-3.935-2.736-6.763-2.736-3.047 0-5.465 1.068-7.254 3.207-1.79 2.138-2.685 5.01-2.685 8.617 0 3.578.96 6.39 2.88 8.432s4.565 3.065 7.94 3.065zm-5.103-18.61c1.025-1.132 2.418-1.7 4.181-1.7 1.72 0 3.053.548 3.995 1.64s1.428 2.691 1.456 4.796h-11.455c.191-2.022.798-3.601 1.823-4.736zm36.988 18.61c3.101 0 5.438-1.143 7.009-3.425h.163l.554 3.013h2.971v-31.887h-3.688v8.978c0 .287.034.843.102 1.669.069.828.124 1.376.165 1.65h-.267c-1.626-2.214-3.948-3.319-6.968-3.319-2.936 0-5.215 1.03-6.833 3.093-1.62 2.065-2.43 4.933-2.43 8.606 0 3.703.806 6.566 2.419 8.586 1.612 2.023 3.88 3.036 6.803 3.036zm-3.852-18.004c1.038-1.509 2.507-2.264 4.406-2.264 2.24 0 3.883.666 4.929 1.997 1.045 1.332 1.567 3.564 1.567 6.691v.676c0 2.788-.516 4.794-1.547 6.016-1.031 1.222-2.667 1.833-4.908 1.833-1.94 0-3.426-.716-4.457-2.153-1.032-1.434-1.547-3.543-1.547-6.332 0-2.8.519-4.955 1.557-6.464zm31.354 18.004c1.49 0 2.781-.11 3.873-.33 1.094-.217 2.262-.593 3.506-1.127v-3.237c-1.45.614-2.713 1.028-3.792 1.24-1.079.212-2.22.316-3.422.316-2.254 0-3.996-.66-5.226-1.987-1.23-1.325-1.878-3.265-1.946-5.819h15.41v-2.234c0-3.115-.84-5.584-2.52-7.407-1.682-1.825-3.935-2.736-6.763-2.736-3.047 0-5.465 1.068-7.255 3.207-1.789 2.138-2.684 5.01-2.684 8.617 0 3.578.96 6.39 2.879 8.432 1.919 2.042 4.566 3.065 7.94 3.065zm-5.102-18.61c1.025-1.132 2.418-1.7 4.18-1.7 1.722 0 3.053.548 3.996 1.64s1.428 2.691 1.455 4.796h-11.454c.19-2.022.798-3.601 1.823-4.736zm44.602 16.355c1.885-1.504 2.828-3.559 2.828-6.17 0-1.391-.26-2.59-.778-3.596-.52-1.002-1.326-1.89-2.418-2.663-1.094-.771-2.754-1.569-4.98-2.387-1.858-.683-3.221-1.292-4.09-1.826-.866-.53-1.494-1.122-1.883-1.77-.39-.649-.585-1.467-.585-2.45 0-1.38.502-2.453 1.506-3.216 1.004-.766 2.394-1.15 4.17-1.15 2.213 0 4.604.534 7.172 1.599l1.169-3.237c-2.514-1.12-5.266-1.681-8.259-1.681-2.869 0-5.18.69-6.937 2.07-1.755 1.381-2.633 3.24-2.633 5.573 0 2.173.595 3.946 1.783 5.32 1.188 1.372 3.17 2.564 5.943 3.574 1.954.71 3.412 1.346 4.375 1.907.963.559 1.65 1.16 2.06 1.803.41.641.614 1.462.614 2.46 0 1.503-.566 2.683-1.7 3.543-1.134.863-2.821 1.292-5.062 1.292-1.312 0-2.722-.157-4.231-.471-1.51-.315-2.9-.743-4.171-1.292v3.609c1.94.942 4.686 1.414 8.238 1.414 3.36 0 5.983-.754 7.869-2.255zm8.732-4.693c0 4.63 2.198 6.948 6.597 6.948.739 0 1.466-.073 2.184-.217.717-.143 1.245-.29 1.587-.44v-2.827c-.328.122-.813.232-1.455.326-.642.098-1.202.145-1.68.145-1.107 0-1.971-.35-2.592-1.045-.622-.698-.933-1.696-.933-2.993v-12.993h6.497v-2.868h-6.497v-5.164h-2.192l-1.476 4.795-3.217 1.477v1.76h3.177v13.096zm18.629-5.472c0-1.406.287-2.688.86-3.843.574-1.155 1.37-2.057 2.388-2.713a5.99 5.99 0 0 1 3.308-.985c.793 0 1.606.097 2.44.286l.45-3.401c-.765-.165-1.648-.245-2.643-.245-1.38 0-2.657.382-3.832 1.148-1.175.765-2.193 1.89-3.053 3.381h-.165l-.409-4.12h-3.032v22.5h3.688v-12.008zm18.771 12.42c1.694 0 3.098-.25 4.213-.749 1.112-.498 2.229-1.451 3.349-2.86h.164l.719 3.197h2.683v-15.327c0-2.624-.663-4.537-1.988-5.739-1.324-1.202-3.346-1.803-6.065-1.803-1.311 0-2.636.172-3.975.512-1.34.341-2.576.812-3.71 1.414l1.126 2.768c.93-.44 1.923-.833 2.983-1.19a10.553 10.553 0 0 1 3.372-.534c1.626 0 2.805.41 3.544 1.22.738.813 1.107 2.075 1.107 3.78v1.335l-3.81.142c-7.2.22-10.802 2.609-10.802 7.172 0 2.118.629 3.759 1.886 4.918 1.257 1.162 2.992 1.744 5.204 1.744zm-1.483-10.043c1.18-.723 3.062-1.132 5.643-1.23l3.322-.142v2.028c0 2.05-.594 3.63-1.773 4.743-1.182 1.115-2.806 1.67-4.868 1.67-1.297 0-2.305-.313-3.023-.942-.715-.628-1.075-1.529-1.075-2.706 0-1.556.591-2.696 1.774-3.421zm20.729-2.716c.86.581 2.349 1.282 4.469 2.102 2.074.79 3.52 1.497 4.334 2.11.81.616 1.217 1.367 1.217 2.255 0 1.01-.422 1.818-1.27 2.419-.847.6-2.199.9-4.057.9-2.294 0-4.678-.601-7.152-1.803v3.362c1.748.942 4.105 1.414 7.07 1.414 2.843 0 5.047-.579 6.618-1.734 1.572-1.154 2.357-2.783 2.357-4.888 0-1.05-.212-1.952-.633-2.703-.424-.75-1.085-1.429-1.978-2.03-.895-.601-2.28-1.25-4.15-1.945-2.501-.958-4.092-1.706-4.775-2.245-.684-.538-1.025-1.22-1.025-2.04 0-.845.396-1.511 1.19-1.997.79-.484 1.952-.729 3.483-.729 1.83 0 3.886.48 6.167 1.437l1.25-2.93c-2.227-1.013-4.616-1.517-7.173-1.517-2.623 0-4.685.532-6.187 1.596-1.504 1.068-2.254 2.522-2.254 4.367 0 1.038.202 1.918.603 2.644.404.723 1.035 1.376 1.896 1.955zm22.524 9.499h.287a7.094 7.094 0 0 0 2.908 2.439c1.19.546 2.541.82 4.057.82 2.91 0 5.185-1.014 6.826-3.044 1.639-2.028 2.46-4.9 2.46-8.617 0-3.66-.809-6.514-2.42-8.556-1.611-2.04-3.9-3.063-6.866-3.063-3.127 0-5.449 1.12-6.965 3.362h-.207c.137-1.544.207-3.087.207-4.631v-7.749h-3.688v31.887h2.643c.08-.26.334-1.21.758-2.848zm.287-8.524c0-3.06.491-5.232 1.474-6.516.985-1.285 2.608-1.928 4.878-1.928 2.062 0 3.594.71 4.591 2.132.995 1.422 1.494 3.551 1.494 6.394 0 2.8-.494 4.94-1.484 6.425-.992 1.48-2.499 2.222-4.519 2.222-2.282 0-3.925-.659-4.928-1.978-1.005-1.317-1.506-3.514-1.506-6.589v-.162zm25.861 10.36c1.572.947 3.375 1.424 5.41 1.424 3.28 0 5.848-1.033 7.706-3.095 1.858-2.063 2.788-4.933 2.788-8.607 0-3.58-.933-6.411-2.798-8.494-1.866-2.085-4.382-3.125-7.552-3.125-3.307 0-5.875 1.02-7.706 3.063-1.83 2.042-2.746 4.895-2.746 8.556 0 2.35.424 4.412 1.272 6.188.846 1.775 2.055 3.14 3.626 4.09zm5.452-18.804c2.172 0 3.82.715 4.948 2.142 1.127 1.429 1.69 3.556 1.69 6.384s-.558 4.976-1.68 6.444c-1.12 1.47-2.75 2.203-4.896 2.203-2.172 0-3.815-.734-4.93-2.203-1.112-1.468-1.668-3.616-1.668-6.444 0-5.683 2.177-8.526 6.536-8.526zm24.308 20.228c1.623 0 3.052-.295 4.282-.883 1.23-.586 2.18-1.42 2.848-2.5h.184l.534 2.971h3.033v-22.5h-3.709v11.722c0 2.855-.526 4.925-1.578 6.21-1.053 1.284-2.734 1.925-5.043 1.925-1.706 0-2.968-.44-3.78-1.322-.814-.88-1.22-2.23-1.22-4.048v-14.487h-3.729v14.734c0 2.856.686 4.933 2.06 6.23 1.372 1.297 3.412 1.948 6.118 1.948zm21.784-12.42c0-1.406.287-2.688.86-3.843.574-1.155 1.37-2.057 2.387-2.713s2.12-.985 3.31-.985c.792 0 1.605.097 2.438.286l.452-3.401c-.766-.165-1.649-.245-2.644-.245a6.88 6.88 0 0 0-3.833 1.148c-1.175.765-2.192 1.89-3.053 3.381h-.164l-.41-4.12h-3.032v22.5h3.689v-12.008zm21.54 12.42c3.127 0 5.45-1.128 6.967-3.382h.162l-.122 2.766v.88c0 1.983-.556 3.531-1.67 4.653-1.113 1.12-2.627 1.679-4.54 1.679-3.346 0-6.112-.586-8.3-1.76v3.4c2.12.956 4.816 1.435 8.096 1.435 3.444 0 5.98-.813 7.614-2.44 1.63-1.625 2.449-4.05 2.449-7.274v-22.869h-2.93l-.492 2.993h-.227c-1.653-2.27-4.003-3.402-7.05-3.402-2.856 0-5.105 1.045-6.751 3.135s-2.469 4.946-2.469 8.564c0 3.691.816 6.549 2.449 8.577 1.631 2.03 3.903 3.045 6.813 3.045zm-3.904-17.984c1.03-1.496 2.49-2.244 4.375-2.244 2.309 0 3.982.683 5.02 2.05 1.037 1.366 1.558 3.551 1.558 6.556v.883c0 2.703-.516 4.668-1.548 5.89-1.03 1.225-2.681 1.836-4.948 1.836-1.995 0-3.494-.73-4.499-2.195-1.005-1.461-1.506-3.586-1.506-6.372 0-2.773.516-4.907 1.548-6.404zm-345.089-61.84c1.625 0 3.053-.295 4.282-.883 1.23-.586 2.18-1.42 2.85-2.499h.184l.532 2.97h3.033v-22.5h-3.708v11.722c0 2.855-.527 4.925-1.579 6.21-1.052 1.284-2.732 1.925-5.041 1.925-1.707 0-2.968-.44-3.781-1.322-.813-.88-1.22-2.23-1.22-4.048V110.2h-3.73v14.735c0 2.856.688 4.933 2.06 6.23 1.374 1.297 3.412 1.948 6.118 1.948zm22.29-12.072c0-2.883.522-4.963 1.567-6.24 1.044-1.278 2.722-1.916 5.03-1.916 1.735 0 3.01.448 3.822 1.343.813.894 1.22 2.257 1.22 4.087v14.386h3.648V118.05c0-2.828-.67-4.912-2.01-6.251-1.338-1.338-3.387-2.008-6.147-2.008-1.516 0-2.902.305-4.16.912-1.256.608-2.234 1.465-2.93 2.571h-.205l-.553-3.074h-2.971v22.501h3.688v-11.66zm24.726-14.57c.575 0 1.076-.191 1.506-.574.432-.383.646-.976.646-1.783 0-.82-.214-1.414-.646-1.782a2.24 2.24 0 0 0-1.506-.553c-.615 0-1.13.184-1.546.553-.418.368-.626.963-.626 1.782 0 .807.208 1.4.626 1.783.416.383.931.574 1.546.574zm-1.884 26.23h3.688v-22.5h-3.688v22.5zm20.607 0l8.546-22.5h-3.935l-4.795 13.258a628.917 628.917 0 0 0-1.517 4.621c-.081.267-.154.514-.215.738-.06.225-.112.427-.153.606h-.165c-.259-1.311-.86-3.3-1.803-5.965l-4.774-13.259h-3.956l8.526 22.501h4.24zm22.269.412c1.488 0 2.78-.11 3.873-.33 1.093-.216 2.262-.593 3.505-1.127v-3.237c-1.45.614-2.712 1.028-3.792 1.24-1.079.212-2.22.316-3.422.316-2.254 0-3.996-.66-5.226-1.987-1.23-1.324-1.878-3.265-1.946-5.82h15.41v-2.233c0-3.115-.84-5.585-2.52-7.408-1.681-1.824-3.935-2.736-6.763-2.736-3.047 0-5.465 1.069-7.254 3.207-1.79 2.138-2.685 5.01-2.685 8.617 0 3.58.96 6.39 2.88 8.433 1.918 2.042 4.565 3.065 7.94 3.065zm-5.103-18.61c1.025-1.133 2.418-1.7 4.181-1.7 1.72 0 3.053.547 3.995 1.64.943 1.093 1.428 2.692 1.455 4.795h-11.454c.19-2.022.798-3.6 1.823-4.734zm23.479 6.19c0-1.407.286-2.688.86-3.843.574-1.154 1.37-2.058 2.388-2.714a5.99 5.99 0 0 1 3.31-.984c.791 0 1.604.096 2.437.287l.451-3.402c-.765-.165-1.647-.246-2.643-.246-1.38 0-2.657.382-3.832 1.148-1.176.765-2.193 1.891-3.054 3.381h-.164l-.41-4.12h-3.032v22.501h3.689v-12.008zm15.3-.339c.86.581 2.349 1.282 4.467 2.102 2.076.791 3.522 1.497 4.335 2.11.811.616 1.218 1.367 1.218 2.255 0 1.01-.423 1.818-1.27 2.419-.847.6-2.2.9-4.057.9-2.296 0-4.68-.601-7.152-1.803v3.362c1.748.942 4.105 1.414 7.07 1.414 2.842 0 5.047-.579 6.618-1.733 1.572-1.155 2.357-2.784 2.357-4.888 0-1.05-.212-1.953-.635-2.704-.423-.75-1.083-1.429-1.977-2.03-.895-.6-2.278-1.25-4.15-1.946-2.5-.957-4.092-1.705-4.774-2.245-.684-.538-1.025-1.218-1.025-2.039 0-.846.395-1.512 1.188-1.997.792-.485 1.954-.728 3.484-.728 1.83 0 3.887.479 6.168 1.435l1.25-2.93c-2.227-1.012-4.618-1.517-7.173-1.517-2.623 0-4.686.533-6.188 1.598-1.503 1.066-2.255 2.521-2.255 4.365 0 1.039.202 1.92.605 2.644.403.724 1.035 1.376 1.896 1.956zm19.625 12.347h3.688v-22.5h-3.688v22.5zm1.884-26.23c.575 0 1.076-.191 1.506-.574.432-.383.646-.976.646-1.783 0-.82-.214-1.414-.646-1.782a2.24 2.24 0 0 0-1.506-.553c-.615 0-1.13.184-1.546.553-.418.368-.626.963-.626 1.782 0 .807.208 1.4.626 1.783.416.383.931.574 1.546.574zm9.811 19.694c0 4.631 2.198 6.948 6.598 6.948.738 0 1.465-.073 2.183-.217.717-.142 1.246-.29 1.587-.44v-2.827c-.328.122-.813.232-1.455.327-.642.097-1.202.144-1.68.144-1.107 0-1.97-.349-2.592-1.045-.622-.698-.933-1.696-.933-2.992V113.07h6.497v-2.87h-6.497v-5.163h-2.192l-1.476 4.794-3.217 1.477v1.762h3.177v13.095zm20.895 6.948c1.693 0 3.097-.25 4.21-.748 1.114-.5 2.232-1.452 3.351-2.86h.165l.717 3.196h2.685v-15.328c0-2.623-.664-4.535-1.988-5.737-1.325-1.202-3.348-1.805-6.066-1.805-1.312 0-2.636.172-3.976.513-1.339.341-2.574.813-3.71 1.414l1.128 2.767a27.6 27.6 0 0 1 2.981-1.189 10.53 10.53 0 0 1 3.372-.533c1.626 0 2.807.407 3.545 1.22.738.812 1.106 2.073 1.106 3.78v1.333l-3.81.143c-7.2.218-10.8 2.609-10.8 7.173 0 2.117.628 3.758 1.885 4.918 1.257 1.162 2.992 1.743 5.205 1.743zm-1.485-10.043c1.18-.725 3.062-1.134 5.645-1.23l3.32-.143v2.029c0 2.05-.592 3.63-1.773 4.743-1.182 1.115-2.804 1.671-4.867 1.671-1.298 0-2.305-.314-3.022-.943-.717-.628-1.076-1.528-1.076-2.705 0-1.557.59-2.696 1.773-3.422zm20.168 9.631h3.688v-22.5h-3.688v22.5zm1.884-26.23c.575 0 1.076-.191 1.505-.574.431-.383.646-.976.646-1.783 0-.82-.215-1.414-.646-1.782a2.235 2.235 0 0 0-1.505-.553c-.615 0-1.13.184-1.546.553-.418.368-.626.963-.626 1.782 0 .807.208 1.4.626 1.783.416.383.931.574 1.546.574zm13.211 14.222c0-1.407.287-2.688.86-3.843.574-1.154 1.37-2.058 2.387-2.714a5.99 5.99 0 0 1 3.31-.984c.793 0 1.606.096 2.439.287l.45-3.402c-.765-.165-1.648-.246-2.643-.246a6.88 6.88 0 0 0-3.833 1.148c-1.174.765-2.192 1.891-3.052 3.381h-.165l-.409-4.12h-3.032v22.501h3.688v-12.008zm23.395 12.42c1.489 0 2.78-.11 3.873-.33 1.092-.216 2.262-.593 3.504-1.127v-3.237c-1.446.614-2.71 1.028-3.79 1.24-1.08.212-2.22.316-3.422.316-2.255 0-3.998-.66-5.227-1.987-1.23-1.324-1.878-3.265-1.946-5.82h15.41v-2.233c0-3.115-.84-5.585-2.521-7.408-1.679-1.824-3.933-2.736-6.761-2.736-3.048 0-5.467 1.069-7.255 3.207-1.79 2.138-2.686 5.01-2.686 8.617 0 3.58.96 6.39 2.88 8.433 1.918 2.042 4.567 3.065 7.941 3.065zm-5.102-18.61c1.025-1.133 2.416-1.7 4.18-1.7 1.72 0 3.054.547 3.997 1.64.943 1.093 1.427 2.692 1.454 4.795H420.13c.19-2.022.798-3.6 1.823-4.734zm38.338 18.61c3.102 0 5.44-1.142 7.01-3.424h.162l.554 3.012h2.973v-31.886H467.3v8.976c0 .287.033.843.102 1.67.068.827.123 1.377.165 1.65h-.267c-1.626-2.214-3.948-3.32-6.968-3.32-2.937 0-5.214 1.032-6.833 3.094-1.62 2.064-2.429 4.932-2.429 8.606 0 3.704.806 6.567 2.417 8.587 1.613 2.022 3.88 3.035 6.803 3.035zm-3.85-18.005c1.037-1.509 2.506-2.264 4.404-2.264 2.242 0 3.883.666 4.93 1.999 1.045 1.331 1.566 3.562 1.566 6.69v.677c0 2.788-.516 4.793-1.546 6.015-1.033 1.222-2.669 1.833-4.908 1.833-1.94 0-3.427-.716-4.457-2.152-1.032-1.434-1.548-3.544-1.548-6.332 0-2.801.518-4.956 1.558-6.466zm31.856 18.005c1.489 0 2.78-.11 3.873-.33 1.095-.216 2.262-.593 3.506-1.127v-3.237c-1.448.614-2.713 1.028-3.793 1.24-1.077.212-2.22.316-3.421.316-2.255 0-3.995-.66-5.225-1.987-1.23-1.324-1.878-3.265-1.948-5.82h15.41v-2.233c0-3.115-.838-5.585-2.519-7.408-1.68-1.824-3.935-2.736-6.763-2.736-3.048 0-5.464 1.069-7.255 3.207-1.788 2.138-2.683 5.01-2.683 8.617 0 3.58.96 6.39 2.878 8.433 1.92 2.042 4.566 3.065 7.94 3.065zm-5.102-18.61c1.025-1.133 2.419-1.7 4.182-1.7 1.72 0 3.052.547 3.995 1.64.943 1.093 1.427 2.692 1.454 4.795h-11.454c.192-2.022.798-3.6 1.823-4.734zm27.736 11.662c0 4.631 2.198 6.948 6.597 6.948.738 0 1.466-.073 2.184-.217.716-.142 1.245-.29 1.586-.44v-2.827c-.326.122-.813.232-1.453.327-.644.097-1.202.144-1.681.144-1.108 0-1.97-.349-2.591-1.045-.624-.698-.933-1.696-.933-2.992V113.07h6.496v-2.87h-6.496v-5.163h-2.192l-1.477 4.794-3.217 1.477v1.762h3.177v13.095zm25.014 6.948c1.489 0 2.78-.11 3.873-.33 1.092-.216 2.262-.593 3.504-1.127v-3.237c-1.45.614-2.711 1.028-3.79 1.24-1.08.212-2.22.316-3.422.316-2.255 0-3.998-.66-5.228-1.987-1.229-1.324-1.877-3.265-1.945-5.82h15.41v-2.233c0-3.115-.84-5.585-2.521-7.408-1.681-1.824-3.933-2.736-6.761-2.736-3.048 0-5.467 1.069-7.255 3.207-1.79 2.138-2.686 5.01-2.686 8.617 0 3.58.96 6.39 2.88 8.433 1.918 2.042 4.567 3.065 7.94 3.065zm-5.102-18.61c1.024-1.133 2.416-1.7 4.18-1.7 1.72 0 3.052.547 3.994 1.64.943 1.093 1.43 2.692 1.457 4.795h-11.455c.19-2.022.799-3.6 1.824-4.734zm28.806 18.61c2.307 0 4.24-.404 5.798-1.21v-3.28c-1.912.876-3.86 1.313-5.84 1.313-2.117 0-3.716-.721-4.796-2.163-1.077-1.441-1.618-3.521-1.618-6.24 0-2.829.54-4.956 1.618-6.384 1.08-1.427 2.753-2.14 5.02-2.14 1.34 0 2.958.355 4.858 1.064l1.128-3.073c-.696-.356-1.582-.645-2.654-.87a15.73 15.73 0 0 0-3.25-.339c-3.374 0-5.972 1.022-7.795 3.063-1.826 2.044-2.736 4.949-2.736 8.72 0 3.715.9 6.568 2.703 8.556 1.806 1.988 4.325 2.983 7.564 2.983zm15.402-12.03c0-2.925.529-5.022 1.589-6.291 1.057-1.271 2.728-1.907 5.01-1.907 1.736 0 3.01.448 3.82 1.343.814.894 1.22 2.257 1.22 4.087v14.386h3.649V118.05c0-2.87-.691-4.957-2.07-6.261-1.38-1.304-3.437-1.958-6.167-1.958-1.544 0-2.93.308-4.16.923s-2.18 1.469-2.848 2.561h-.247c.137-.874.204-1.926.204-3.156v-9.344h-3.688V132.7h3.688v-11.619zm26.533-.042c0-2.883.52-4.963 1.566-6.24 1.045-1.278 2.723-1.916 5.032-1.916 1.734 0 3.008.448 3.821 1.343.813.894 1.22 2.257 1.22 4.087v14.386h3.648V118.05c0-2.828-.67-4.912-2.01-6.251-1.34-1.338-3.387-2.008-6.147-2.008-1.517 0-2.903.305-4.16.912-1.257.608-2.235 1.465-2.93 2.571h-.205l-.554-3.074h-2.97v22.501h3.689v-11.66zm26.487 10.648c1.571.947 3.374 1.424 5.41 1.424 3.279 0 5.847-1.033 7.705-3.095 1.858-2.063 2.788-4.933 2.788-8.608 0-3.58-.932-6.41-2.798-8.494-1.865-2.083-4.381-3.125-7.551-3.125-3.307 0-5.876 1.022-7.706 3.063-1.83 2.044-2.746 4.895-2.746 8.556 0 2.35.424 4.413 1.272 6.189.845 1.775 2.055 3.14 3.626 4.09zm5.452-18.804c2.172 0 3.82.714 4.947 2.142 1.128 1.428 1.691 3.555 1.691 6.383 0 2.83-.558 4.977-1.68 6.446-1.12 1.469-2.751 2.202-4.896 2.202-2.172 0-3.816-.733-4.93-2.202-1.113-1.47-1.669-3.616-1.669-6.446 0-5.683 2.177-8.525 6.537-8.525zm20.569-12.07h-3.688V132.7h3.688v-31.886zm11.365 30.874c1.57.947 3.374 1.424 5.409 1.424 3.28 0 5.848-1.033 7.706-3.095 1.858-2.063 2.788-4.933 2.788-8.608 0-3.58-.933-6.41-2.798-8.494-1.866-2.083-4.382-3.125-7.552-3.125-3.306 0-5.875 1.022-7.706 3.063-1.83 2.044-2.745 4.895-2.745 8.556 0 2.35.424 4.413 1.272 6.189.845 1.775 2.054 3.14 3.626 4.09zm5.451-18.804c2.172 0 3.82.714 4.948 2.142 1.127 1.428 1.69 3.555 1.69 6.383 0 2.83-.558 4.977-1.68 6.446-1.12 1.469-2.75 2.202-4.895 2.202-2.173 0-3.816-.733-4.93-2.202-1.113-1.47-1.67-3.616-1.67-6.446 0-5.683 2.178-8.525 6.537-8.525zm24.891 20.228c3.128 0 5.452-1.127 6.968-3.382h.162l-.122 2.766v.88c0 1.983-.556 3.531-1.67 4.654-1.113 1.12-2.627 1.678-4.54 1.678-3.346 0-6.112-.586-8.3-1.76v3.401c2.12.955 4.817 1.434 8.096 1.434 3.444 0 5.98-.813 7.614-2.439 1.63-1.626 2.449-4.05 2.449-7.275V110.2h-2.93l-.492 2.993h-.227c-1.653-2.268-4.002-3.402-7.05-3.402-2.855 0-5.105 1.045-6.75 3.135-1.647 2.09-2.47 4.945-2.47 8.565 0 3.691.816 6.55 2.45 8.577 1.63 2.03 3.902 3.045 6.812 3.045zm-3.902-17.984c1.03-1.496 2.488-2.244 4.374-2.244 2.31 0 3.983.683 5.02 2.05 1.037 1.365 1.559 3.551 1.559 6.556v.882c0 2.705-.517 4.67-1.549 5.892-1.03 1.224-2.68 1.835-4.948 1.835-1.995 0-3.494-.73-4.499-2.194-1.005-1.462-1.506-3.587-1.506-6.374 0-2.773.516-4.907 1.549-6.403zm22.297 17.572h3.689v-22.5h-3.689v22.5zm1.886-26.23c.573 0 1.074-.191 1.506-.574.431-.383.646-.976.646-1.783 0-.82-.215-1.414-.646-1.782a2.245 2.245 0 0 0-1.506-.553c-.616 0-1.13.184-1.547.553-.419.368-.626.963-.626 1.782 0 .807.207 1.4.626 1.783.417.383.93.574 1.547.574zm19.093 26.642c1.489 0 2.78-.11 3.873-.33 1.092-.216 2.262-.593 3.504-1.127v-3.237c-1.45.614-2.711 1.028-3.791 1.24-1.08.212-2.22.316-3.422.316-2.254 0-3.997-.66-5.227-1.987-1.23-1.324-1.878-3.265-1.945-5.82h15.41v-2.233c0-3.115-.84-5.585-2.522-7.408-1.68-1.824-3.933-2.736-6.76-2.736-3.048 0-5.467 1.069-7.255 3.207-1.79 2.138-2.686 5.01-2.686 8.617 0 3.58.96 6.39 2.88 8.433 1.918 2.042 4.567 3.065 7.94 3.065zm-5.103-18.61c1.025-1.133 2.417-1.7 4.18-1.7 1.72 0 3.052.547 3.995 1.64.943 1.093 1.43 2.692 1.457 4.795h-11.455c.19-2.022.798-3.6 1.823-4.734zM587.236 77.929V0H0v240h587.236v-79.869h187.819V77.928H587.236zm-9.93-75.374h7.377v75.374h-7.377V2.554zm-61.8 0h59.246v75.374h-59.247V2.554zm-392.369 0h389.814v75.374H123.137V2.554zm-120.583 0h118.03v75.374H2.554V2.554zm24.993 234.892H2.554v-77.315h24.993v77.315zm13.066 0H30.1v-77.315h10.512v77.315zm544.07 0H43.166v-77.315h541.517v77.315zM772.5 157.578H2.554V80.482H772.5v77.096z"/></svg>